<svg xmlns="http://www.w3.org/2000/svg" width="2000" height="500" viewBox="0 0 2000 500">
  <defs>
    <style>
      .cls-1 {
        fill: #9100f7;
        fill-rule: evenodd;
      }
    </style>
  </defs>
  <path id="ArOla" class="cls-1" d="M355.025,367.019L201.692,66.16,48.358,367.019l-33.493,65.4H88.13l33.493-65.4,80.069-156.97,80.068,156.97,33.493,65.4h73.265Zm329.159-103.6h0a87.381,87.381,0,0,0,28.259-7.849,99.187,99.187,0,0,0,57.566-90,98.263,98.263,0,0,0-98.385-98.368H440.315V433.47h65.416V264.988h65.415a64.845,64.845,0,0,1,55.472,31.394l1.57,3.14,35.063,68.543,33.493,65.405h73.265l-33.493-65.405ZM505.731,200.107v-67.5H671.624a32.972,32.972,0,0,1,23.55,9.419,34.514,34.514,0,0,1,9.943,24.068,33.233,33.233,0,0,1-19.886,30.348,30.539,30.539,0,0,1-13.607,3.139ZM1013.87,66.16c-101,0-183.162,82.147-183.162,183.131S912.87,432.423,1013.87,432.423s183.16-82.148,183.16-183.132S1114.87,66.16,1013.87,66.16Zm0,300.859c-64.891,0-117.746-52.847-117.746-117.728s52.855-117.727,117.746-117.727,117.75,52.846,117.75,117.727S1078.76,367.019,1013.87,367.019Zm353.24,0a52.167,52.167,0,0,1-44.48-44.475V66.683h-65.42V316.265a113.759,113.759,0,0,0,12.04,51.277,116.079,116.079,0,0,0,52.85,53.37,113.81,113.81,0,0,0,51.29,12.034h185.78v-65.4Zm584.54,0L1798.32,66.16,1644.98,367.019l-33.49,65.4h73.27l33.49-65.4,80.07-156.97,80.07,156.97,33.49,65.4h73.26Z"/>
</svg>
