<svg xmlns="http://www.w3.org/2000/svg" width="2000" height="500" viewBox="0 0 2000 500">
  <defs>
    <style>
      .cls-1 {
        fill: #9100f7;
        fill-rule: evenodd;
      }
    </style>
  </defs>
  <path id="Arula" class="cls-1" d="M350.558,365.927L199.232,69.144,47.9,365.927,14.85,430.445H87.157l33.054-64.518,79.021-154.844,79.02,154.844,33.054,64.518h72.307Zm324.851-102.2h0a86.256,86.256,0,0,0,27.889-7.742,97.84,97.84,0,0,0,56.812-88.777,96.953,96.953,0,0,0-97.1-97.035H434.732v361.3h64.559v-166.2H563.85A64,64,0,0,1,618.6,296.247l1.549,3.1,34.6,67.615L687.8,431.477H760.11l-33.054-64.518ZM499.291,201.277V134.694H663.013a32.548,32.548,0,0,1,23.242,9.291,34.04,34.04,0,0,1,9.813,23.742,32.783,32.783,0,0,1-19.626,29.937,30.158,30.158,0,0,1-13.429,3.1ZM1129.9,69.144v180.65c0,64-52.16,116.133-116.21,116.133s-116.2-52.131-116.2-116.133V69.144H832.927v180.65c0,99.616,81.086,180.651,180.763,180.651s180.77-81.035,180.77-180.651V69.144H1129.9Zm245.31,296.783a51.485,51.485,0,0,1-43.9-43.873V69.66h-64.56v246.2a112.269,112.269,0,0,0,11.88,50.582,114.521,114.521,0,0,0,52.17,52.646,112.309,112.309,0,0,0,50.61,11.872h183.35V366.443Zm576.89,0L1800.78,69.144,1649.45,365.927l-33.05,64.518h72.3l33.06-64.518,79.02-154.844,79.02,154.844,33.05,64.518h72.31Z"/>
</svg>
